<svg width="88" height="89" viewBox="0 0 88 89" fill="none" xmlns="http://www.w3.org/2000/svg">
<g clip-path="url(#clip0_64_72)">
<path d="M41.2584 0.368876C39.9039 0.405485 38.5676 0.515313 37.2314 0.716664C35.2545 0.914354 33.2776 1.90647 31.0993 2.89492C28.328 4.08106 25.553 5.27086 22.9794 5.46855C18.6229 6.85238 17.2391 8.83294 16.0529 10.4145C16.0529 10.6122 15.8552 10.8098 15.8552 10.8098C14.27 13.9765 14.0723 17.1433 14.6654 20.31C15.2585 22.2905 16.0493 24.0771 16.6423 25.8563C18.0335 29.6197 19.4173 33.1781 20.0104 37.3369C20.6071 38.5267 21.1965 40.1083 21.5919 41.6934C22.5803 44.8601 23.5761 48.4222 26.5451 51.1936L26.5671 51.1826C26.6293 51.2521 26.6769 51.329 26.7428 51.3912L26.8197 51.3546L26.7465 49.2166C29.1188 45.6509 32.4795 43.275 37.2314 42.2865C39.1351 41.8838 41.1889 41.7374 43.3195 41.8179C45.5376 41.8778 47.7435 42.1673 49.9019 42.6819C55.2468 44.0657 59.402 46.8407 59.6033 49.2166C59.7022 50.5126 59.7498 51.761 59.7205 53.0094C59.7205 53.2437 59.7058 53.478 59.6948 53.7159L60.1927 53.9649C60.4925 53.7917 60.7501 53.5541 60.9469 53.2693L60.9579 53.2583L60.9798 53.229C61.1263 53.0313 61.2544 52.7751 61.3825 52.5188C61.4558 52.3834 61.5216 52.204 61.5875 52.0465C62.338 50.3552 62.9128 47.8255 63.5571 44.8601C63.7548 43.8717 63.9598 43.0773 64.1539 42.2865C65.739 38.7244 67.9136 35.5577 70.0919 32.585C73.654 27.6428 77.0184 23.0849 76.623 17.74C70.0919 5.06951 60.9835 3.08895 56.2316 2.1005C55.4408 1.90281 55.0491 1.9028 54.4561 1.70511C49.5577 0.811848 45.3257 0.255387 41.2584 0.368876ZM59.7205 53.0094C59.7413 51.8086 59.7022 50.6075 59.6033 49.4107C59.4056 46.837 55.2468 44.0657 49.7042 42.6819C47.6071 42.1977 45.4698 41.9085 43.3195 41.8179C41.4102 41.7539 39.4999 41.9111 37.6268 42.2865C33.0726 43.275 29.5141 45.6546 27.3359 49.213L27.5226 54.4518C29.9644 53.1521 33.867 51.2521 39.0179 50.7909C39.2559 50.7725 39.5158 50.7725 39.7647 50.7579C40.1931 50.7103 40.7386 50.5968 41.3902 50.5968C47.2733 50.5968 53.3541 52.5518 59.2446 56.63C59.3873 55.6269 59.4642 54.6202 59.5008 53.6171L59.6656 53.7013C59.6729 53.4706 59.7168 53.2364 59.7205 53.0057V53.0094ZM41.2547 0.566566C41.7087 0.551922 42.1846 0.603175 42.6422 0.606836C41.8002 0.599514 40.9619 0.617819 40.1272 0.665411C40.5043 0.643445 40.8777 0.577549 41.2547 0.566566ZM38.2674 0.830153C37.9892 0.863101 37.7073 0.877745 37.4291 0.918015C34.4381 1.34634 30.9346 3.48433 27.3615 4.74369C28.6611 4.26044 29.9754 3.66005 31.297 3.09627C33.2739 2.10782 35.4522 1.11571 37.2314 0.918015C37.5755 0.866762 37.9233 0.870423 38.2674 0.830153ZM37.4291 1.70878C38.0222 1.70878 38.8166 1.70878 39.4096 1.90647C38.9653 1.80478 38.5058 1.7874 38.0551 1.85521C38.4503 1.88446 38.8397 1.96823 39.212 2.10416C41.3353 5.76509 37.6524 21.4302 36.7262 31.9371C37.2973 35.6968 37.8757 39.2443 38.4212 41.8948C35.8476 35.3637 33.2739 23.8794 32.8749 14.9723C32.6772 11.4102 32.8785 8.23987 33.673 5.86759C34.4601 3.48433 35.6499 1.9028 37.4254 1.70511L37.4291 1.70878ZM48.9098 2.69723C45.9444 10.4218 45.549 25.0655 45.3513 29.6197C45.1536 31.5966 45.3513 35.9531 45.549 39.1198C45.549 39.9106 45.7467 40.7013 45.7467 41.4958C45.7467 40.7013 45.549 40.1083 45.549 39.3175C43.9638 27.4414 41.9833 13.1931 48.9098 2.70089V2.69723ZM61.1812 4.08472C60.1927 11.9996 56.0376 15.7631 54.6537 23.4876C54.2584 29.6234 53.4639 36.7475 53.2663 42.8832C53.0686 36.7475 53.2663 30.2164 54.2547 23.6817C55.2432 16.9529 57.4214 10.2204 61.1812 4.08472ZM23.9532 6.38378C24.77 6.37449 25.5582 6.68449 26.1498 7.24776L26.0985 7.22213C26.5854 7.55894 27.0723 7.98727 27.5372 8.62793C26.7904 12.1717 28.4708 19.7279 27.6837 25.7245C27.9619 31.3916 27.9436 37.3662 30.7918 42.0485C27.2041 36.5205 26.4866 29.4623 25.9521 22.8799C25.5384 18.8895 25.2052 15.203 24.2534 12.2523C23.7262 11.1357 23.2686 10.1472 22.8476 9.24297C22.7597 9.10751 22.6865 8.95375 22.5913 8.82562C22.2326 8.45282 22.0218 7.96225 21.9983 7.44545C21.9983 7.24776 22.1923 6.85238 22.3936 6.85238C22.5913 6.65469 22.983 6.64737 23.1807 6.44968C23.434 6.40104 23.6917 6.37895 23.9495 6.38378H23.9532ZM19.0219 8.62793C18.8023 8.70115 18.6851 8.77803 18.5094 8.85125C19.1574 8.72678 19.8347 8.97572 20.4131 10.0154C19.7248 13.281 22.0092 22.3491 21.98 28.7008C23.1258 35.4662 23.9935 42.7954 27.7349 47.4265C23.3784 42.4805 21.5992 33.7712 20.2154 26.4457C19.0256 20.7053 18.0335 15.7558 16.0566 14.1742C15.8589 13.7789 15.6612 13.5775 15.6612 13.1821C15.6612 12.5891 15.6612 11.7946 16.0566 11.0039C15.0425 13.3249 14.5739 15.6423 14.702 17.9633C14.5522 15.5659 15.0185 13.1701 16.0566 11.0039C16.0566 10.8062 16.2543 10.8062 16.2543 10.6085C16.2982 10.5499 16.3678 10.4804 16.4153 10.4218C16.6268 10.0569 16.9079 9.73724 17.2427 9.48093C17.4441 9.25761 17.5942 9.04162 17.8248 8.81464C17.6308 9.01965 17.5026 9.21734 17.3342 9.41869C17.4331 9.3528 17.5246 9.28324 17.6418 9.22832C17.8146 9.03425 18.0275 8.88004 18.2658 8.77638C18.5041 8.67271 18.7621 8.62206 19.0219 8.62793ZM17.6418 9.22832C17.6271 9.25395 17.6125 9.26493 17.5978 9.29422L17.7333 9.18439L17.6418 9.22832ZM71.6771 13.3798L71.6588 13.4347C71.7979 13.4164 71.9333 13.3725 72.0724 13.3798C71.937 13.3725 71.7942 13.4164 71.6514 13.453C68.4921 23.1252 64.7433 32.7974 60.9945 42.4696C60.9924 42.4735 60.99 42.4771 60.9872 42.4805C60.6687 44.1829 60.1305 45.7168 59.0103 46.837C60.5954 45.0542 60.7895 42.4769 60.9872 39.3102C61.1848 36.3412 61.1848 33.1745 62.77 30.0041C62.77 29.8101 62.7737 29.6197 62.9641 29.422L62.9677 29.4147C63.3228 28.1224 63.7072 26.8923 64.1282 25.6879C65.6585 20.9653 68.3017 14.0974 71.4977 13.4604C71.5563 13.4384 71.6221 13.3908 71.6807 13.3798H71.6771ZM30.7039 59.6979L29.5178 60.0933C30.1109 60.8877 30.5063 61.4844 30.9016 61.6785C31.3229 61.9262 31.8005 62.0623 32.2891 62.0738C32.4868 62.0738 32.8785 62.0738 33.0762 61.8761L36.0489 60.8877C36.2466 60.8877 36.4443 60.69 36.642 60.69C37.0374 60.69 37.235 60.69 37.6304 60.8877L38.6225 61.8761L39.611 61.6785C39.2156 61.0854 38.6225 60.496 38.2272 60.2983C37.8318 60.1006 37.4327 59.8956 36.8397 59.8956H36.4443L33.2739 61.0854H32.6845C32.2855 61.0854 31.8938 61.0854 31.6961 60.8877C31.4984 60.69 31.0993 60.2946 30.7039 59.6979ZM21.2002 61.6785C20.2117 62.2715 18.8242 63.2636 16.8437 64.0544C14.8668 64.8452 13.2816 65.6396 12.4872 66.4303C11.7001 67.2211 11.3047 68.0119 11.3047 68.8063C11.3047 69.2017 11.5024 69.403 11.8978 69.6007C12.0954 69.7984 12.4945 69.7984 12.6922 69.9961C15.4635 71.1822 18.2348 72.5661 20.8048 73.9499C21.2038 74.1476 21.5992 74.5466 21.8006 74.7443C21.9983 74.942 22.1923 74.942 22.39 74.942C22.789 74.942 23.3784 74.748 23.7738 74.3489C24.1692 73.9536 24.3705 73.5545 24.3705 73.1591C24.3705 72.7637 24.1692 72.5697 23.7738 72.372C23.7738 72.372 22.1886 71.5776 19.4173 70.3915C17.9284 69.7465 16.4764 69.0193 15.0681 68.2132C15.6612 67.2248 16.8473 66.4303 18.6302 65.6396C20.6071 64.8488 21.9983 64.0544 22.5877 63.4613C22.7854 63.2636 22.7854 63.0659 22.7854 62.8683C22.7362 62.5698 22.5985 62.293 22.39 62.0738C22.119 61.8271 21.7679 61.6867 21.4015 61.6785H21.2002ZM62.3746 61.6785C62.0772 61.7274 61.8015 61.8653 61.5839 62.0738C61.3862 62.4692 61.1848 62.6706 61.1848 62.8683V63.0659C61.7779 63.659 62.576 64.0544 63.7621 64.4498C64.7506 64.6475 65.739 65.0465 66.7312 65.2442C67.9173 65.6396 68.7081 66.2327 69.1071 67.0234V67.2248C69.1071 67.4225 68.7081 67.8178 67.9173 68.2132C67.5219 68.4109 66.7275 69.0076 65.739 69.7984C64.7506 70.3915 64.1539 70.9809 63.5608 71.1786C62.77 71.5776 62.177 71.973 61.9793 72.372C61.7816 72.5697 61.7816 72.7637 61.7816 72.9614C61.7816 73.3568 61.9793 73.3568 62.177 73.7522C62.3746 74.1476 62.77 74.1549 62.9677 74.1549C63.1654 74.1549 63.3631 73.9499 63.5608 73.9499C64.5492 73.3568 65.9404 72.5661 67.5219 71.1786C69.3011 69.7947 70.6886 68.8063 71.483 68.2132C72.2738 67.8178 72.6655 67.4188 72.6655 66.8221C72.6655 66.628 72.6655 66.2327 72.2701 66.035C70.8863 64.4498 68.9094 63.465 66.5335 62.6706C66.1381 62.4729 65.545 62.2715 64.3552 62.0738C63.7621 61.8761 63.1654 61.6785 62.77 61.6785H62.3746ZM51.487 64.6438C50.4986 64.6438 49.7042 64.8488 49.1111 65.4419C48.3203 66.035 48.1227 67.0234 48.3203 68.2132C48.3203 69.2017 48.7157 69.9924 49.3088 70.7868C49.9019 71.5776 50.6963 71.9766 51.487 71.9766C52.0801 71.9766 52.4755 71.7716 53.0722 71.5739C54.0607 70.9809 54.4597 69.9924 54.4597 68.2132C54.4597 66.8257 54.0607 65.8373 53.4676 65.2479C52.8873 64.8437 52.1941 64.6335 51.487 64.6475V64.6438ZM35.0568 64.8452C34.0683 64.8452 33.2776 65.0465 32.6845 65.6396C31.8901 66.2327 31.6961 67.2211 31.8938 68.4109C31.8938 69.3994 32.2855 70.1901 32.8822 70.9809C33.4789 71.7716 34.266 72.1743 35.0568 72.1743C35.6535 72.1743 36.0489 71.9693 36.642 71.7716C37.6304 71.1786 38.0258 70.1901 38.0258 68.4109C38.0258 66.8257 37.6304 65.8373 37.0374 65.4456C36.4581 65.0421 35.7662 64.832 35.0605 64.8452H35.0568ZM35.0568 67.2248C35.6535 67.2248 36.0489 67.6201 36.0489 68.2132C36.0489 68.8063 35.4522 69.2017 35.0605 69.2017C34.4637 69.2017 34.072 68.8063 34.072 68.2132C34.072 67.6201 34.4637 67.2248 35.0605 67.2248H35.0568ZM51.0917 67.4225C51.6847 67.4225 52.0838 67.8142 52.0838 68.4109C52.0838 68.8063 51.6847 69.3994 51.0953 69.3994C50.4986 69.3994 50.1069 69.004 50.1069 68.4109C50.1069 67.8142 50.4986 67.4225 51.0953 67.4225H51.0917ZM41.1962 75.1397L41.7892 76.3258C41.9896 76.7024 42.2576 77.0387 42.58 77.3179C42.7777 77.5156 43.1767 77.911 43.5685 77.911H43.9675C44.3629 77.911 44.5569 77.911 44.7546 77.7133C44.9523 77.5156 45.355 77.5156 45.5527 77.3179L46.1421 76.7249C46.3398 76.5272 46.5375 76.3258 46.5375 76.1281C46.7352 75.9305 46.7352 75.7328 46.9328 75.5351C46.9328 75.3374 47.1305 75.1397 47.1305 75.1397C46.9328 75.5351 46.5375 75.9305 46.3398 76.3258C45.9444 76.5235 45.7504 76.9226 45.3513 76.9226C44.9596 77.1203 44.5606 77.1203 44.1652 77.1203C43.7698 77.1203 43.3744 77.1203 43.1767 76.9226C42.7814 76.9226 42.58 76.7249 42.3823 76.5272L41.7892 75.9305C41.5916 75.7328 41.3939 75.3374 41.1962 75.1397ZM38.0258 78.9031C33.867 78.9031 31.297 84.4458 25.359 79.4962C23.7775 89.1977 35.4558 89.9884 40.4054 85.8296C43.7735 82.8643 42.7777 78.7054 38.0258 78.9031ZM48.518 78.9031C43.7698 78.7054 42.7777 82.8643 46.1457 85.8333C51.0917 89.9884 62.7664 89.194 61.1848 79.4962C55.2468 84.4458 52.8745 78.9031 48.518 78.9031Z" fill="black"/>
</g>
<defs>
<clipPath id="clip0_64_72">
<rect width="87.8623" height="87.8623" fill="white" transform="translate(0.046875 0.354248)"/>
</clipPath>
</defs>
</svg>
