<svg width="88" height="89" viewBox="0 0 88 89" fill="none" xmlns="http://www.w3.org/2000/svg">
<g clip-path="url(#clip0_64_70)">
<path d="M16.6119 27.8111C18.0683 27.8111 19.465 28.3897 20.4949 29.4195C21.5247 30.4493 22.1033 31.8461 22.1033 33.3025V71.7422C22.1033 73.1987 21.5247 74.5954 20.4949 75.6252C19.465 76.6551 18.0683 77.2336 16.6119 77.2336H5.62909C2.6015 77.2336 0.137695 74.7735 0.137695 71.7422V33.3025C0.137695 30.2712 2.6015 27.8111 5.62909 27.8111H16.6119ZM49.5602 11.3369C51.0166 11.3369 52.4134 11.9155 53.4432 12.9453C54.4731 13.9751 55.0516 15.3719 55.0516 16.8283V71.7422C55.0516 73.1987 54.4731 74.5954 53.4432 75.6252C52.4134 76.6551 51.0166 77.2336 49.5602 77.2336H38.5774C35.5499 77.2336 33.0861 74.7735 33.0861 71.7422V16.8283C33.0861 13.7971 35.5499 11.3369 38.5774 11.3369H49.5602ZM82.5086 38.7939C83.965 38.7939 85.3618 39.3724 86.3916 40.4023C87.4214 41.4321 88 42.8289 88 44.2853V71.7422C88 73.1987 87.4214 74.5954 86.3916 75.6252C85.3618 76.6551 83.965 77.2336 82.5086 77.2336H71.5258C70.0694 77.2336 68.6726 76.6551 67.6428 75.6252C66.613 74.5954 66.0344 73.1987 66.0344 71.7422V44.2853C66.0344 42.8289 66.613 41.4321 67.6428 40.4023C68.6726 39.3724 70.0694 38.7939 71.5258 38.7939H82.5086Z" fill="black"/>
</g>
<defs>
<clipPath id="clip0_64_70">
<rect width="87.8623" height="87.8623" fill="white" transform="translate(0.137695 0.354248)"/>
</clipPath>
</defs>
</svg>
