<svg width="88" height="89" viewBox="0 0 88 89" fill="none" xmlns="http://www.w3.org/2000/svg">
<g clip-path="url(#clip0_64_74)">
<path fill-rule="evenodd" clip-rule="evenodd" d="M43.9311 0.241699C19.6592 0.241699 0 19.9009 0 44.1728C0 63.6124 12.5753 80.0316 30.0379 85.8525C32.2345 86.2369 33.0582 84.919 33.0582 83.7658C33.0582 82.7224 33.0033 79.2628 33.0033 75.5836C21.9656 77.6154 19.11 72.8928 18.2314 70.4217C17.7372 69.1587 15.5956 65.2598 13.7285 64.2164C12.1909 63.3927 9.99434 61.3609 13.6736 61.306C17.1331 61.2511 19.6043 64.491 20.428 65.8089C24.3818 72.4535 30.6969 70.5864 33.2229 69.4332C33.6073 66.5777 34.7605 64.6557 36.0235 63.5575C26.2489 62.4592 16.0349 58.6701 16.0349 41.8665C16.0349 37.0889 17.7372 33.1351 20.5378 30.06C20.0985 28.9617 18.5609 24.4587 20.9771 18.4182C20.9771 18.4182 24.6564 17.265 33.0582 22.9212C36.5727 21.9327 40.3068 21.4385 44.041 21.4385C47.7751 21.4385 51.5093 21.9327 55.0238 22.9212C63.4256 17.2101 67.1048 18.4182 67.1048 18.4182C69.521 24.4587 67.9835 28.9617 67.5441 30.06C70.3447 33.1351 72.0471 37.034 72.0471 41.8665C72.0471 58.725 61.7782 62.4592 52.0035 63.5575C53.596 64.9303 54.9688 67.5662 54.9688 71.6847C54.9688 77.5605 54.9139 82.2831 54.9139 83.7658C54.9139 84.919 55.7376 86.2918 57.9342 85.8525C66.6552 82.9081 74.2333 77.3031 79.602 69.8263C84.9707 62.3495 87.8597 53.3775 87.8623 44.1728C87.8623 19.9009 68.2031 0.241699 43.9311 0.241699Z" fill="black"/>
</g>
<defs>
<clipPath id="clip0_64_74">
<rect width="87.8623" height="87.8623" fill="white" transform="translate(0 0.241455)"/>
</clipPath>
</defs>
</svg>
