<svg width="88" height="82" viewBox="0 0 88 82" fill="none" xmlns="http://www.w3.org/2000/svg">
<path d="M19.9767 82V26.6747H1.11295V82H19.9767ZM10.5473 19.1165C17.1254 19.1165 21.2199 14.8681 21.2199 9.55914C21.0974 4.13042 17.1256 0 10.6721 0C4.21956 0 0 4.1305 0 9.55914C0 14.8684 4.09355 19.1165 10.4241 19.1165H10.5473ZM30.4177 82H49.2815V51.1037C49.2815 49.4501 49.404 47.7983 49.9022 46.6163C51.2659 43.3126 54.3697 39.8909 59.5807 39.8909C66.4067 39.8909 69.1374 44.9644 69.1374 52.4018V81.9996H88V50.2766C88 33.2829 78.6936 25.3759 66.2824 25.3759C56.1062 25.3759 51.6382 30.9209 49.156 34.6975H49.2819V26.6736H30.4181C30.6657 31.865 30.4181 81.9989 30.4181 81.9989L30.4177 82Z" fill="black"/>
</svg>
