<svg width="16" height="26" viewBox="0 0 16 26" fill="none" xmlns="http://www.w3.org/2000/svg">
<path d="M8 0.214355C3.5808 0.214355 0 3.78076 0 8.19835C0 15.8368 8 25.7984 8 25.7984C8 25.7984 16 15.8352 16 8.19835C16 3.78235 12.4192 0.214355 8 0.214355ZM8 12.616C6.85426 12.616 5.75546 12.1608 4.9453 11.3507C4.13514 10.5405 3.68 9.44169 3.68 8.29595C3.68 7.15022 4.13514 6.05141 4.9453 5.24125C5.75546 4.4311 6.85426 3.97596 8 3.97596C9.14574 3.97596 10.2445 4.4311 11.0547 5.24125C11.8649 6.05141 12.32 7.15022 12.32 8.29595C12.32 9.44169 11.8649 10.5405 11.0547 11.3507C10.2445 12.1608 9.14574 12.616 8 12.616Z" fill="#6A26CD"/>
</svg>
