<svg width="26" height="24" viewBox="0 0 26 24" fill="none" xmlns="http://www.w3.org/2000/svg">
<path d="M11.9997 23.6667C5.55617 23.6667 0.333008 18.4435 0.333008 12C0.333008 5.55654 5.55617 0.333377 11.9997 0.333377C13.8111 0.332016 15.5979 0.753112 17.2181 1.56321C18.8383 2.37331 20.2472 3.55008 21.333 5.00004H18.1713C16.8241 3.8121 15.1627 3.03813 13.3865 2.77101C11.6103 2.50389 9.79475 2.75497 8.15771 3.49413C6.52067 4.23328 5.13168 5.4291 4.15742 6.9381C3.18316 8.44709 2.66502 10.2052 2.66517 12.0013C2.66532 13.7975 3.18376 15.5555 4.15827 17.0643C5.13278 18.5732 6.52196 19.7688 8.15913 20.5076C9.79629 21.2465 11.6119 21.4973 13.388 21.2299C15.1642 20.9625 16.8255 20.1882 18.1725 19H21.3342C20.2483 20.4502 18.8391 21.627 17.2187 22.4371C15.5983 23.2472 13.8113 23.6683 11.9997 23.6667ZM20.1663 16.6667V13.1667H10.833V10.8334H20.1663V7.33338L25.9997 12L20.1663 16.6667Z" fill="#767575"/>
</svg>
