<svg width="28" height="22" viewBox="0 0 28 22" fill="none" xmlns="http://www.w3.org/2000/svg">
<path d="M27.3337 6.47725V17.3333C27.3337 18.4401 26.9103 19.505 26.1501 20.3096C25.3899 21.1141 24.3507 21.5973 23.2457 21.6599L23.0003 21.6666H5.00033C3.89348 21.6667 2.82855 21.2432 2.02402 20.483C1.21948 19.7229 0.736324 18.6837 0.673659 17.5786L0.666992 17.3333V6.47725L13.5363 13.2186C13.6795 13.2936 13.8387 13.3327 14.0003 13.3327C14.1619 13.3327 14.3212 13.2936 14.4643 13.2186L27.3337 6.47725ZM5.00033 0.333252H23.0003C24.0744 0.333123 25.1103 0.731913 25.907 1.45227C26.7038 2.17264 27.2046 3.16323 27.3123 4.23192L14.0003 11.2053L0.688326 4.23192C0.79169 3.20567 1.25773 2.24994 2.00266 1.53654C2.74759 0.82313 3.72257 0.398835 4.75233 0.339919L5.00033 0.333252H23.0003H5.00033Z" fill="#6A26CD"/>
</svg>
