<svg width="88" height="88" viewBox="0 0 88 88" fill="none" xmlns="http://www.w3.org/2000/svg">
<path d="M49.6375 44C49.6375 57.6675 38.5275 68.75 24.816 68.75C21.5614 68.7544 18.3379 68.1176 15.3294 66.8762C12.321 65.6347 9.58648 63.8128 7.2821 61.5146C4.97772 59.2163 3.14858 56.4867 1.89912 53.4816C0.649651 50.4764 0.00433074 47.2546 0 44C0 30.327 11.11 19.25 24.816 19.25C28.071 19.245 31.2951 19.8812 34.3042 21.1223C37.3134 22.3634 40.0485 24.1852 42.3535 26.4835C44.6584 28.7818 46.488 31.5117 47.7379 34.5172C48.9877 37.5227 49.6332 40.745 49.6375 44V44ZM76.8625 44C76.8625 56.87 71.3075 67.298 64.4545 67.298C57.6015 67.298 52.0465 56.8645 52.0465 44C52.0465 31.13 57.6015 20.702 64.4545 20.702C71.3075 20.702 76.8625 31.1355 76.8625 44ZM88 44C88 55.528 86.0475 64.8725 83.633 64.8725C81.224 64.8725 79.2715 55.5225 79.2715 44C79.2715 32.472 81.224 23.1275 83.6385 23.1275C86.0475 23.1275 88 32.472 88 44Z" fill="black"/>
</svg>
