<svg width="88" height="89" viewBox="0 0 88 89" fill="none" xmlns="http://www.w3.org/2000/svg">
<g clip-path="url(#clip0_64_67)">
<path d="M27.6906 82.7257C60.8476 82.7257 78.9857 55.2522 78.9857 31.469C78.9857 30.7002 78.9857 29.9204 78.9527 29.1516C82.484 26.5953 85.5317 23.4304 87.9531 19.8053C84.6545 21.2597 81.1589 22.2182 77.5799 22.6498C81.3499 20.3964 84.1735 16.8507 85.5259 12.672C81.9839 14.7703 78.1071 16.2434 74.0654 17.0266C71.3481 14.1328 67.7525 12.2157 63.8354 11.5723C59.9183 10.929 55.8983 11.5952 52.3982 13.4679C48.8981 15.3405 46.1131 18.3151 44.4747 21.9308C42.8363 25.5465 42.4359 29.6016 43.3355 33.4679C36.1679 33.1085 29.1558 31.2464 22.754 28.0025C16.3523 24.7586 10.7039 20.2053 6.17528 14.6379C3.87626 18.6086 3.17464 23.3055 4.21291 27.7747C5.25118 32.244 7.9515 36.1506 11.7655 38.7012C8.90747 38.6041 6.11225 37.8366 3.60531 36.4607V36.7078C3.61024 40.8674 5.05124 44.8978 7.68472 48.1176C10.3182 51.3374 13.9827 53.5492 18.0587 54.3791C16.5115 54.8053 14.9134 55.0178 13.3086 55.0106C12.1773 55.014 11.0482 54.9092 9.93689 54.6976C11.0889 58.2783 13.3321 61.409 16.3522 63.6512C19.3723 65.8934 23.0181 67.1348 26.779 67.2015C20.3901 72.2195 12.4981 74.9411 4.37411 74.9279C2.94261 74.9339 1.51212 74.8514 0.0908203 74.6808C8.33623 79.9375 17.912 82.7287 27.6906 82.7257Z" fill="black"/>
</g>
<defs>
<clipPath id="clip0_64_67">
<rect width="87.8623" height="87.8623" fill="white" transform="translate(0.0908203 0.354248)"/>
</clipPath>
</defs>
</svg>
